<?xml version="1.0" standalone="no"?>
<!DOCTYPE svg PUBLIC "-//W3C//DTD SVG 20010904//EN"
 "http://www.w3.org/TR/2001/REC-SVG-20010904/DTD/svg10.dtd">
<svg version="1.0" xmlns="http://www.w3.org/2000/svg"
 width="1073.000000pt" height="1073.000000pt" viewBox="0 0 1073.000000 1073.000000"
 preserveAspectRatio="xMidYMid meet">
<metadata>
Created by potrace 1.11, written by Peter Selinger 2001-2013
</metadata>
<g transform="translate(0.000000,1073.000000) scale(0.100000,-0.100000)"
fill="#000000" stroke="none">
<path d="M5237 10160 c-70 -22 -132 -64 -248 -170 -174 -158 -214 -195 -294
-267 -44 -39 -89 -80 -101 -90 -21 -18 -193 -174 -224 -203 -9 -8 -56 -51
-105 -95 -49 -44 -96 -87 -105 -95 -9 -8 -51 -46 -94 -85 -44 -38 -84 -75 -90
-80 -6 -6 -81 -73 -166 -150 -85 -76 -160 -144 -166 -150 -6 -5 -46 -41 -89
-80 -43 -38 -90 -81 -104 -94 -75 -68 -186 -168 -203 -182 -15 -14 -99 -90
-214 -194 -12 -11 -37 -33 -55 -50 -54 -48 -343 -308 -355 -320 -6 -5 -44 -39
-84 -75 -40 -36 -83 -74 -94 -85 -12 -11 -62 -56 -111 -100 -50 -44 -108 -96
-130 -116 -89 -82 -105 -97 -181 -164 -43 -38 -103 -93 -134 -121 -30 -28 -75
-68 -99 -90 -61 -54 -77 -68 -177 -159 -48 -44 -98 -89 -110 -100 -12 -11 -55
-49 -95 -85 -40 -36 -77 -69 -83 -75 -6 -5 -56 -50 -111 -100 -55 -49 -102
-92 -105 -95 -3 -3 -45 -41 -95 -85 -49 -44 -92 -83 -95 -86 -3 -3 -99 -90
-215 -194 -115 -103 -238 -213 -271 -244 -34 -31 -99 -90 -145 -131 -179 -160
-212 -205 -239 -320 -16 -64 -19 -150 -6 -150 5 0 2 -8 -5 -17 -10 -11 -10
-14 -1 -9 11 7 16 -10 15 -51 -1 -7 4 -13 9 -13 6 0 6 -6 -1 -14 -9 -11 -9
-16 0 -22 8 -4 9 -3 5 4 -4 7 -3 12 3 12 6 0 13 -11 17 -25 3 -14 11 -25 18
-25 6 0 4 -5 -4 -10 -13 -8 -12 -10 3 -10 9 0 17 -5 17 -11 0 -5 -4 -7 -10 -4
-16 10 -11 -1 7 -16 11 -9 14 -10 9 -2 -5 9 -2 11 9 7 13 -5 13 -9 3 -22 -10
-12 -10 -14 0 -8 6 4 12 3 12 -3 0 -6 8 -8 18 -4 9 3 14 3 10 -2 -8 -9 16 -60
33 -71 8 -4 9 -3 5 4 -4 7 -3 12 3 12 5 0 12 -8 15 -18 4 -13 4 -12 3 3 -2 12
-10 19 -20 19 -9 -1 -14 2 -11 7 3 5 0 9 -5 9 -6 0 -11 4 -11 10 0 5 13 1 30
-8 16 -9 30 -25 30 -34 0 -10 5 -18 11 -18 5 0 7 6 3 13 -6 9 -5 9 8 0 8 -7
17 -10 20 -8 10 11 58 -18 56 -33 -2 -8 3 -17 10 -20 8 -2 12 2 10 13 -2 11 4
19 15 20 9 2 15 -1 11 -6 -3 -5 -10 -6 -16 -3 -7 4 -8 2 -4 -5 4 -6 11 -9 16
-6 5 3 14 -3 20 -12 10 -16 10 -16 5 2 -4 16 0 21 18 22 12 0 16 -1 10 -4 -7
-3 -13 -9 -13 -14 0 -4 8 -5 17 -2 16 6 17 5 3 -12 -13 -17 -13 -18 0 -10 15
10 20 11 40 14 6 0 10 5 10 10 0 6 -9 8 -19 6 -14 -2 -18 1 -14 11 4 10 10 11
23 4 11 -6 21 -6 24 -1 4 5 14 8 24 6 9 -1 23 2 29 7 9 7 15 5 19 -6 3 -9 10
-13 16 -10 5 3 4 12 -4 22 -7 9 -8 13 -2 9 7 -4 23 2 37 13 14 11 28 16 31 11
7 -10 -10 -24 -32 -27 -20 -3 -22 -8 -12 -24 8 -13 10 -12 10 2 0 11 6 16 20
13 11 -2 19 1 17 8 -1 6 3 11 10 12 7 0 18 6 25 14 10 10 10 12 1 7 -18 -10
-16 9 2 24 8 6 20 8 26 4 7 -4 9 -3 5 4 -7 12 23 32 40 25 7 -2 10 6 9 22 -2
14 1 23 6 19 5 -3 7 -9 5 -13 -3 -4 1 -8 9 -8 10 0 12 5 5 16 -7 12 1 26 38
58 26 24 55 43 64 43 9 0 20 5 24 12 4 6 3 8 -4 4 -6 -3 -14 -1 -18 5 -4 7 -3
9 3 6 6 -4 14 0 17 8 3 8 11 14 18 13 7 -2 13 3 14 10 1 6 2 14 3 17 0 3 11 0
23 -6 20 -11 21 -10 10 3 -10 13 -9 18 4 29 10 8 20 13 23 12 3 -2 6 1 6 5 0
10 93 92 103 92 4 0 -3 -8 -16 -18 -21 -17 -22 -18 -3 -18 11 0 18 4 15 7 -2
4 1 11 7 14 5 4 8 13 5 20 -3 8 2 19 10 25 8 7 14 9 14 5 0 -4 9 3 21 16 11
13 18 19 15 13 -3 -7 1 -14 9 -17 10 -4 12 -1 8 10 -5 12 -3 14 8 8 11 -6 11
-5 2 5 -9 10 -7 17 13 32 13 11 31 17 39 14 8 -3 17 0 21 6 4 7 3 8 -4 4 -7
-4 -12 -2 -12 4 0 6 -5 8 -12 4 -7 -4 -8 -3 -4 4 4 6 13 9 21 5 10 -3 15 1 15
13 0 16 2 16 9 4 6 -8 7 -18 4 -24 -3 -5 -1 -6 4 -3 6 4 8 19 5 33 -4 23 -2
26 12 21 10 -4 15 -3 11 3 -3 6 -1 10 4 10 6 0 12 -3 12 -7 1 -5 2 -910 3
-2013 l2 -2005 25 -56 c44 -93 123 -158 214 -175 53 -10 7415 -11 7483 -1 124
18 225 113 248 232 4 22 8 938 8 2035 1 1724 3 1995 15 1992 23 -5 41 -35 35
-57 -6 -19 -5 -19 8 -2 13 17 15 17 37 -7 16 -17 22 -32 18 -48 -6 -22 -5 -22
8 -4 14 19 21 11 16 -18 -1 -5 5 -4 13 3 13 11 17 10 22 -3 3 -9 10 -13 15
-10 5 3 6 -2 3 -10 -3 -9 -1 -17 5 -17 6 -1 17 -2 24 -3 6 0 12 -5 12 -11 0
-5 4 -17 9 -25 5 -8 -2 -5 -16 8 -18 16 -25 18 -25 8 0 -8 4 -13 8 -11 3 3 12
-2 19 -10 10 -12 16 -13 28 -3 13 11 14 9 7 -12 -7 -21 -6 -23 6 -13 24 19
180 -137 171 -170 -1 -5 2 -6 7 -3 5 4 12 0 14 -6 4 -8 6 -9 6 -2 1 6 -6 17
-14 24 -8 7 -15 16 -15 21 0 5 9 0 20 -11 11 -11 20 -25 20 -30 0 -6 3 -9 8
-9 19 3 23 -2 13 -15 -10 -12 -8 -14 11 -9 23 4 23 4 3 -12 -20 -17 -20 -17 4
-10 18 6 22 4 15 -6 -6 -11 -5 -12 7 -2 13 11 18 8 29 -12 9 -17 19 -24 29
-20 8 3 12 3 8 -1 -4 -4 2 -14 14 -22 11 -8 18 -20 15 -28 -3 -7 3 -18 14 -24
16 -8 18 -8 14 5 -3 8 -11 12 -17 8 -6 -4 -7 -1 -2 7 12 19 37 -18 29 -43 -5
-17 -4 -18 9 -6 8 8 12 18 9 23 -3 5 0 6 7 2 9 -6 9 -11 0 -22 -6 -8 -9 -17
-5 -21 3 -3 6 -1 6 7 0 10 3 10 15 0 13 -11 15 -10 9 6 -5 16 -4 16 5 4 6 -8
11 -11 11 -6 0 5 7 3 15 -4 8 -7 13 -15 11 -19 -3 -4 -1 -13 5 -21 7 -12 9
-10 9 9 0 17 4 22 16 17 9 -3 18 -6 20 -6 2 0 4 -5 4 -11 0 -8 -4 -8 -14 0
-14 12 -15 10 -7 -28 1 -2 7 2 15 8 11 10 17 8 26 -6 10 -16 11 -16 6 -1 -3
10 -1 20 4 23 6 4 10 -1 10 -10 0 -9 5 -13 10 -10 6 4 8 10 6 14 -3 3 4 7 14
7 10 0 16 -5 13 -10 -4 -6 1 -6 13 -2 24 10 95 15 90 7 -3 -4 11 -7 30 -7 19
0 34 1 34 2 0 2 -8 11 -17 20 -16 16 -16 17 -1 12 9 -4 19 -2 22 5 3 7 4 3 3
-7 -1 -10 4 -20 11 -22 7 -1 8 0 3 2 -6 3 -7 12 -4 20 4 12 8 12 20 -3 13 -17
14 -16 8 5 -6 22 -5 23 15 12 12 -6 24 -9 28 -6 3 3 -1 6 -8 6 -7 0 -10 3 -6
7 4 5 11 8 15 8 3 0 19 10 35 23 16 12 25 22 21 22 -5 0 -17 -8 -27 -17 -17
-15 -18 -15 -13 0 7 17 39 32 53 23 5 -3 9 1 9 9 0 8 -5 11 -11 8 -6 -3 -8 -3
-4 2 4 4 18 13 30 19 13 7 23 20 23 31 -1 11 5 24 12 28 8 5 10 13 7 19 -5 7
-1 9 9 5 10 -3 17 -2 17 3 0 6 -5 10 -10 10 -11 0 8 40 25 52 6 5 5 8 -4 8 -9
0 -10 4 -4 13 6 6 11 43 12 82 1 38 4 71 6 73 6 6 -46 138 -69 172 -34 51 -50
67 -261 255 -55 50 -105 94 -111 100 -6 5 -48 44 -94 85 -46 41 -95 86 -109
99 -14 12 -62 55 -105 95 -44 39 -105 94 -135 122 -31 28 -108 97 -171 154
-63 56 -158 142 -210 189 -52 47 -115 104 -140 126 -24 22 -50 45 -56 50 -6 6
-45 41 -87 79 -43 38 -88 78 -100 90 -13 12 -59 53 -102 91 -43 39 -90 81
-105 95 -15 14 -62 57 -104 94 -42 38 -87 78 -100 90 -12 12 -62 57 -111 101
-49 44 -93 85 -99 90 -6 6 -54 48 -106 95 -52 47 -100 90 -106 95 -48 43 -179
162 -188 170 -6 6 -56 50 -111 100 -55 49 -122 111 -150 136 -27 25 -102 92
-165 149 -98 88 -207 186 -294 265 -12 11 -57 52 -101 90 -43 39 -90 81 -105
95 -15 14 -47 43 -72 65 -108 97 -214 192 -237 214 -38 35 -166 149 -189 169
-10 9 -61 55 -112 102 -125 114 -199 180 -299 270 -109 98 -113 101 -216 195
-48 44 -96 87 -105 95 -9 8 -54 49 -100 90 -46 41 -95 85 -109 98 -124 110
-278 147 -424 102z m148 -968 c-7 -7 30 -39 40 -33 6 2 4 -2 -3 -11 -8 -10 -9
-19 -3 -22 5 -4 13 -2 16 4 9 14 35 -7 35 -27 0 -8 5 -11 10 -8 6 3 10 1 10
-5 0 -6 3 -9 8 -7 4 3 16 -7 26 -21 11 -14 14 -22 8 -18 -8 5 -10 2 -6 -9 5
-11 10 -13 19 -5 8 7 19 2 36 -17 13 -14 19 -23 13 -20 -15 9 -27 -20 -12 -29
6 -4 8 -3 5 3 -12 20 30 21 47 2 9 -11 16 -23 16 -27 -1 -4 -9 3 -19 15 -10
12 -21 19 -25 16 -3 -3 3 -13 14 -20 12 -8 17 -20 13 -26 -4 -7 0 -6 10 1 14
12 19 12 32 -1 8 -9 15 -19 15 -23 0 -5 -5 -3 -12 4 -7 7 -17 12 -22 12 -6 0
-2 -7 8 -15 10 -8 23 -12 27 -9 12 7 58 -28 59 -44 0 -7 4 -11 9 -7 5 3 12 1
15 -4 4 -5 2 -13 -4 -16 -8 -5 -7 -11 1 -21 6 -7 16 -11 21 -8 6 4 8 -3 3 -17
-4 -15 -3 -19 3 -11 6 10 12 8 26 -7 9 -10 25 -18 34 -16 22 3 44 -14 35 -28
-4 -6 0 -8 10 -4 12 5 14 0 11 -21 -5 -25 -4 -26 9 -8 13 18 14 18 21 1 3 -10
1 -25 -6 -34 -11 -13 -9 -13 8 1 19 17 21 16 44 -12 13 -16 27 -27 31 -24 4 2
10 0 13 -5 4 -5 1 -13 -5 -17 -7 -4 -9 -3 -6 4 5 6 -1 8 -13 5 -27 -7 -21 -12
20 -17 37 -4 52 -22 44 -51 -6 -19 -5 -19 7 -2 13 16 16 16 42 -8 15 -14 27
-29 27 -32 0 -3 -9 2 -20 12 -11 10 -20 14 -21 9 0 -5 -5 0 -10 11 l-9 20 3
-20 c1 -11 9 -20 17 -20 8 -1 14 -6 13 -12 -1 -6 8 -10 23 -8 19 2 24 -1 19
-12 -3 -10 -1 -13 9 -10 9 4 27 -8 44 -28 17 -18 34 -31 38 -27 5 4 2 -2 -6
-12 -10 -13 -11 -17 -2 -12 18 11 77 -29 79 -53 1 -12 -3 -21 -9 -21 -6 0 -8
-3 -5 -6 4 -4 13 -2 20 4 21 18 60 -14 54 -43 -3 -16 0 -22 10 -18 7 3 10 10
6 16 -4 6 -1 7 6 3 7 -5 10 -15 6 -23 -4 -12 -2 -13 8 -5 11 10 13 6 12 -18
-1 -17 3 -30 8 -30 5 0 7 9 4 19 -3 14 -1 18 9 14 8 -3 11 -9 8 -14 -3 -5 2
-9 10 -9 9 0 16 -4 16 -8 0 -5 11 -15 24 -22 14 -7 27 -19 30 -27 3 -8 -11 -1
-31 16 -21 17 -42 31 -48 31 -5 0 2 -8 18 -18 15 -10 24 -22 20 -26 -5 -4 -1
-6 7 -4 8 2 14 -2 13 -7 -1 -6 8 -12 19 -12 12 -1 25 -8 29 -15 5 -7 9 -9 9
-4 0 6 13 -3 30 -19 16 -15 27 -32 24 -37 -3 -4 1 -8 8 -8 9 0 9 -3 -2 -10 -8
-5 -10 -10 -4 -10 5 0 14 4 20 9 5 6 22 -2 44 -22 19 -17 28 -28 19 -25 -9 4
-16 1 -16 -8 0 -7 4 -11 9 -8 5 3 25 -5 44 -18 26 -17 34 -29 31 -45 -3 -14 0
-20 10 -16 7 3 10 10 6 17 -3 6 4 2 16 -9 21 -18 21 -20 5 -32 -20 -15 -7 -18
16 -3 19 12 61 -26 53 -48 -5 -11 -2 -14 8 -10 8 3 24 -1 34 -8 17 -13 18 -17
6 -37 -13 -20 -13 -21 3 -8 14 12 19 12 25 2 5 -7 12 -12 17 -12 5 0 9 -10 8
-23 -1 -17 3 -23 13 -19 12 5 12 7 1 14 -7 5 -8 9 -2 9 15 0 56 -45 52 -57 -2
-6 9 -22 25 -36 15 -14 27 -22 27 -17 0 5 -9 15 -20 23 -11 8 -17 17 -12 22 4
5 1 5 -7 0 -10 -6 -12 -4 -6 5 5 9 13 6 29 -12 11 -13 34 -34 50 -46 16 -12
24 -22 19 -22 -5 0 -13 4 -19 10 -6 6 -15 6 -24 -1 -12 -8 -11 -9 5 -7 11 2
19 -2 18 -9 -2 -8 4 -10 15 -6 15 6 16 5 2 -13 -11 -15 -11 -16 0 -6 8 6 20
12 28 12 12 0 12 -3 2 -15 -7 -9 -10 -18 -6 -22 3 -3 6 -1 6 5 0 18 27 14 34
-4 3 -8 10 -13 15 -10 5 3 11 -1 14 -9 4 -10 1 -12 -11 -9 -15 5 -15 4 1 -6 9
-6 22 -8 27 -5 6 3 7 -1 4 -10 -5 -11 -2 -15 8 -13 16 3 80 -47 71 -56 -4 -3
-1 -6 5 -6 7 0 12 -6 12 -12 0 -7 -14 3 -30 22 -16 19 -30 31 -30 27 0 -5 7
-15 15 -24 8 -8 12 -19 9 -25 -4 -6 -2 -8 4 -4 6 3 14 2 17 -4 5 -8 12 -7 23
2 13 11 15 10 9 -4 -3 -10 -2 -17 3 -15 5 1 16 -7 25 -18 9 -11 13 -14 9 -6
-4 8 9 2 29 -13 34 -26 51 -46 27 -31 -5 3 -10 1 -10 -4 0 -6 9 -11 20 -11 11
0 20 -7 20 -15 0 -8 5 -14 11 -13 6 2 14 -4 16 -12 4 -13 3 -13 -6 0 -6 8 -11
11 -11 5 1 -5 7 -18 14 -28 12 -16 14 -16 20 -2 4 11 2 14 -6 9 -7 -5 -8 -3
-4 5 11 17 47 -16 39 -35 -4 -10 0 -12 11 -8 11 4 16 1 16 -11 0 -10 -5 -14
-12 -9 -10 5 -10 3 0 -7 7 -8 23 -14 36 -14 13 -1 31 -8 40 -18 10 -9 13 -17
7 -17 -5 0 -15 8 -20 18 -12 19 -14 12 -5 -12 3 -9 15 -16 26 -16 11 0 26 -7
35 -15 13 -13 13 -18 2 -33 -10 -12 -7 -11 10 3 l24 20 -12 -22 c-8 -15 -8
-23 -1 -23 5 0 10 6 11 13 0 9 2 9 6 -1 2 -6 10 -10 16 -6 7 3 4 -1 -6 -9 -16
-13 -16 -15 -2 -21 10 -4 14 -2 9 5 -4 7 -1 10 7 7 8 -3 13 -11 11 -17 -1 -7
2 -10 8 -6 12 7 72 -40 63 -49 -10 -9 -25 -7 -19 3 3 4 -4 17 -17 27 -18 16
-19 16 -8 2 7 -10 10 -18 6 -18 -4 0 -2 -7 5 -15 7 -9 20 -13 27 -10 8 3 24
-2 36 -10 12 -8 17 -15 11 -15 -5 0 -15 5 -21 11 -7 7 -12 7 -15 -3 -4 -9 4
-14 25 -15 37 -3 46 -11 27 -24 -12 -8 -10 -9 7 -4 15 4 28 -1 42 -16 12 -13
21 -26 21 -31 0 -4 7 -8 16 -8 8 0 12 -5 9 -10 -4 -6 -11 -8 -16 -5 -5 4 -9 1
-9 -5 0 -7 8 -9 20 -5 11 4 20 3 19 -2 -4 -21 2 -34 12 -27 8 5 8 9 -1 14 -8
5 -9 10 -2 14 6 3 13 -3 17 -14 4 -11 11 -18 16 -15 5 3 6 -1 3 -10 -5 -12 -2
-16 12 -13 11 2 18 -2 17 -9 -2 -7 3 -13 11 -13 8 0 17 -9 21 -19 3 -10 17
-22 30 -25 18 -5 23 -11 18 -23 -5 -13 -2 -15 11 -10 14 6 17 3 12 -8 -3 -10
-1 -15 8 -13 7 2 32 -14 54 -34 23 -21 39 -38 35 -38 -3 0 -15 7 -25 17 -10 9
-18 12 -18 6 0 -5 12 -15 28 -22 60 -29 77 -40 77 -53 0 -7 5 -13 10 -13 6 0
25 -15 43 -33 32 -33 41 -49 20 -36 -7 4 -8 3 -4 -5 6 -9 11 -9 23 1 14 11 15
10 9 -7 -5 -17 -1 -21 17 -22 12 -1 35 -17 52 -35 16 -18 33 -32 37 -30 5 1
16 -11 26 -28 11 -16 21 -27 25 -24 8 8 29 -35 22 -46 -3 -6 1 -7 9 -4 9 3 13
11 10 18 -3 6 4 0 16 -13 11 -13 19 -30 16 -37 -7 -17 10 -28 20 -13 5 8 3 9
-6 4 -9 -5 -11 -4 -6 4 5 8 16 5 35 -11 15 -13 24 -24 19 -26 -4 -2 -8 -8 -8
-13 0 -6 5 -7 12 -3 8 5 9 2 5 -10 -4 -10 -3 -15 3 -11 6 3 13 -1 16 -10 5
-13 9 -13 22 -3 12 10 14 10 8 1 -4 -8 -2 -13 4 -13 6 0 8 -4 5 -10 -3 -5 4
-10 15 -10 16 0 20 -4 16 -16 -5 -12 -1 -14 16 -8 20 6 21 5 9 -10 -12 -14
-12 -16 1 -11 19 8 103 -69 93 -84 -3 -6 1 -11 10 -11 10 0 13 5 9 13 -4 6 2
3 14 -7 12 -11 22 -25 22 -33 0 -7 4 -13 9 -13 23 0 107 -79 109 -101 1 -13 3
-953 4 -2088 2 -1356 0 -2074 -7 -2094 -5 -17 -22 -39 -37 -50 -27 -20 -47
-20 -3742 -20 -3437 0 -3717 1 -3740 16 -14 10 -31 27 -38 39 -10 18 -12 460
-13 2101 0 1142 3 2077 6 2077 3 0 5 11 4 25 -2 14 1 23 6 19 5 -3 12 2 15 10
3 9 10 13 15 10 5 -3 6 -10 3 -16 -4 -7 -2 -8 5 -4 6 4 9 11 6 16 -2 4 9 13
25 20 17 7 29 15 26 17 -2 3 -14 -1 -26 -7 -12 -6 -24 -10 -26 -7 -3 2 10 12
28 20 18 9 27 17 20 17 -8 0 1 12 19 28 18 15 38 26 45 24 7 -1 16 3 20 9 4 8
3 9 -4 5 -7 -4 -12 -2 -12 3 0 15 33 14 49 -2 8 -6 5 2 -5 18 -14 23 -15 27
-3 18 20 -16 32 -5 17 16 -7 9 -8 13 -4 9 5 -4 21 7 36 24 20 23 29 27 35 18
5 -9 4 -11 -3 -6 -7 4 -12 5 -12 2 0 -14 19 -14 31 1 10 12 10 14 2 9 -25 -14
-13 10 20 42 18 18 36 29 40 26 4 -4 9 1 13 10 5 12 10 14 19 6 14 -12 31 3
21 19 -7 10 34 65 42 56 3 -3 -2 -11 -11 -18 -13 -9 -14 -16 -6 -27 9 -13 10
-12 5 3 -3 9 -1 17 5 17 14 0 59 47 59 62 0 9 -3 9 -10 -2 -5 -8 -10 -10 -10
-4 0 19 13 24 28 11 10 -7 13 -7 9 -1 -7 11 24 54 38 54 5 0 0 -9 -10 -20 -10
-11 -16 -23 -12 -26 3 -3 11 4 17 16 10 18 14 19 27 8 15 -12 15 -11 3 8 -16
26 -7 56 15 48 8 -3 12 -11 8 -17 -3 -5 -1 -7 5 -4 5 4 8 17 4 29 -3 15 -2 19
7 14 13 -8 41 10 41 27 0 6 -7 2 -15 -9 -8 -10 -15 -14 -15 -8 0 20 23 34 36
23 10 -8 12 -6 9 11 -2 13 -2 20 1 18 2 -3 28 17 56 43 29 27 60 49 70 49 10
0 18 5 18 11 0 5 -6 7 -12 3 -7 -4 0 6 15 23 19 20 36 29 52 27 14 -1 28 3 32
8 3 6 1 8 -4 5 -6 -4 -14 1 -17 10 -4 10 -4 14 0 11 3 -4 17 6 31 23 14 16 35
34 47 40 20 10 20 10 2 -5 -11 -9 -15 -16 -9 -16 15 0 36 27 29 38 -3 5 4 16
15 25 10 9 19 13 19 7 0 -5 -7 -13 -16 -18 -15 -8 -15 -10 0 -15 10 -4 15 -3
13 1 -5 7 25 40 31 34 1 -2 6 -2 10 1 4 2 2 2 -5 1 -7 -2 -15 1 -18 6 -4 6 1
10 9 10 9 0 15 3 15 8 -3 19 3 22 21 12 11 -6 20 -7 19 -3 -4 15 15 47 39 70
24 22 48 32 38 15 -3 -5 2 -9 10 -9 13 0 13 2 1 15 -13 12 -13 17 1 33 8 10
19 16 24 13 4 -3 8 0 8 7 0 8 5 7 17 -2 14 -12 16 -12 8 0 -6 11 -4 13 7 9 11
-5 15 0 14 15 -2 24 56 87 80 87 8 0 14 6 14 14 0 7 6 19 14 25 11 10 17 8 26
-6 9 -15 10 -14 4 7 -6 22 -5 23 9 12 12 -10 17 -10 23 -1 4 8 3 9 -4 5 -23
-14 -12 21 13 42 15 13 25 17 25 9 0 -6 9 3 20 21 22 36 36 41 44 15 4 -15 5
-15 4 2 -1 38 2 44 25 56 22 12 22 12 3 -10 -16 -18 -17 -24 -6 -34 10 -9 11
-9 5 1 -4 8 0 21 9 31 9 10 16 25 14 32 -2 9 4 13 16 11 12 -2 15 1 11 8 -5 9
-1 10 14 5 13 -4 21 -2 21 5 0 6 -4 8 -10 5 -5 -3 -10 -2 -10 4 0 17 22 24 32
10 7 -10 8 -8 5 8 -7 34 33 53 63 30 12 -9 13 -9 3 3 -15 17 -17 54 -3 45 6
-4 8 -10 6 -14 -3 -4 1 -8 8 -8 8 0 11 8 9 18 -3 10 2 26 11 34 9 9 16 13 16
8 0 -5 -5 -14 -10 -19 -7 -7 -6 -11 4 -11 8 0 13 4 10 8 -2 4 0 10 6 14 6 4 7
11 4 17 -5 8 -1 9 11 4 16 -6 16 -4 4 10 -13 16 -12 16 8 6 23 -13 43 1 22 14
-8 5 -9 3 -4 -6 6 -9 4 -11 -5 -5 -10 6 1 21 40 57 51 46 67 58 56 39 -3 -5 2
-15 12 -22 15 -13 16 -12 3 4 -10 13 -10 17 -1 17 10 0 10 3 1 14 -10 12 -9
13 8 9 11 -3 27 3 40 16 12 12 17 21 12 21 -5 0 -14 -7 -21 -15 -7 -8 -17 -15
-23 -15 -11 0 54 60 66 60 5 0 5 5 1 11 -4 7 1 7 16 -1 18 -10 21 -9 15 1 -6
9 -3 11 9 6 10 -4 15 -3 11 3 -3 6 -2 10 4 10 6 0 13 11 17 24 8 33 79 102 89
85 6 -8 4 -10 -5 -4 -9 6 -11 4 -5 -5 6 -9 4 -11 -5 -5 -9 5 -11 4 -6 -4 11
-18 36 6 29 27 -6 15 -5 16 12 2 17 -14 18 -14 5 10 -13 24 -12 24 5 10 10 -8
16 -10 12 -4 -14 25 100 125 134 119 11 -2 17 0 14 6 -4 5 0 9 7 10 10 0 10 2
1 6 -19 7 -16 21 7 28 11 3 20 14 20 23 0 13 2 14 9 3 6 -9 11 -10 15 -2 4 6
12 8 18 5 7 -4 8 -2 4 5 -4 6 -12 8 -18 5 -7 -5 -8 -2 -4 5 5 7 14 10 22 7 9
-3 11 0 7 11 -4 9 -2 14 3 11 5 -3 15 0 22 8 7 8 10 14 6 14 -3 0 -1 7 6 15
10 12 16 13 27 4 7 -7 16 -9 20 -5 3 3 1 6 -5 6 -7 0 -12 5 -12 10 0 6 8 10
18 8 12 -2 16 3 14 17 l-3 20 17 -20 c16 -20 16 -20 10 2 -5 16 0 29 16 45 13
13 26 23 30 23 4 0 13 8 20 17 7 10 25 19 40 20 15 1 24 6 21 11 -3 5 -12 6
-20 2 -13 -4 -14 -3 -3 10 8 10 17 12 29 5 13 -6 18 -5 18 5 0 8 -5 11 -11 8
-6 -4 0 5 14 19 20 22 28 24 45 16 20 -11 20 -11 1 11 -17 19 -18 21 -3 15 12
-4 17 -2 15 7 -2 8 4 13 14 11 9 -1 20 3 24 9 5 8 3 9 -6 4 -9 -5 -11 -4 -6 3
4 7 14 12 23 12 9 0 14 3 10 6 -12 12 17 33 31 22 9 -8 11 -7 6 5 -3 9 3 24
15 36 24 24 29 16 6 -9 -13 -14 -13 -17 0 -17 8 0 12 3 10 7 -2 4 9 17 26 29
16 12 27 26 24 30 -6 10 45 67 57 63 5 -1 11 5 14 13 4 8 10 15 16 15 5 0 6
-6 2 -12 -4 -7 2 -5 14 5 11 11 18 25 16 32 -3 7 0 16 7 21 8 4 10 3 5 -4 -4
-7 -1 -12 8 -12 10 0 13 6 9 18 -6 15 -5 16 12 2 17 -14 18 -14 5 10 -12 23
-12 24 3 12 9 -8 22 -12 29 -9 8 4 7 6 -4 6 -10 1 -18 6 -18 12 0 7 9 9 21 6
15 -4 19 -3 11 5 -11 11 19 48 39 48 6 0 1 -8 -12 -18 -18 -15 -20 -20 -8 -27
8 -5 11 -5 7 0 -4 4 9 21 29 36 20 16 32 29 26 29 -5 0 -14 -5 -20 -11 -8 -8
-13 -8 -18 0 -4 7 -1 10 7 9 7 -2 12 2 11 9 -1 6 5 10 15 8 19 -3 42 12 42 28
0 6 -7 2 -15 -9 -8 -10 -15 -14 -15 -8 0 17 21 33 37 27 7 -3 13 -2 11 3 -2 5
5 20 15 34 12 16 17 19 15 8 -2 -9 2 -17 7 -17 6 -1 10 9 10 21 0 14 7 24 18
26 9 2 17 9 17 17 0 7 7 16 16 19 24 9 36 7 28 -6 -4 -7 -3 -8 5 -4 6 4 9 12
6 17 -4 5 -1 9 4 9 6 0 11 5 11 12 0 9 -3 9 -12 0 -7 -7 -16 -12 -21 -12 -5 0
-1 7 7 16 9 8 20 12 26 9 5 -3 10 -1 10 5 0 6 5 8 11 5 6 -4 9 -1 7 7 -2 8 22
38 53 66 44 41 59 49 69 39 10 -10 12 -8 6 7 -8 22 11 49 28 39 17 -11 37 -12
30 -2 -3 5 -10 7 -15 4 -5 -4 -9 -1 -9 6 0 7 8 9 21 6 16 -4 18 -3 8 9 -13 16
-13 16 23 18 14 0 30 5 35 10 5 5 3 6 -4 2 -9 -5 -13 0 -13 13 0 10 6 21 13
24 14 5 48 5 42 -1z m429 -387 c11 -8 16 -15 10 -16 -5 0 1 -4 14 -10 14 -5
20 -13 16 -21 -5 -7 -15 -2 -32 18 -14 16 -29 29 -33 29 -4 0 -11 3 -15 8 -14
13 21 7 40 -8z m-1124 -219 c0 -3 -4 -8 -10 -11 -5 -3 -10 -1 -10 4 0 6 5 11
10 11 6 0 10 -2 10 -4z m-131 -122 c-6 -8 -15 -12 -18 -8 -3 4 0 9 7 11 6 3 9
10 6 15 -4 7 -2 8 5 4 9 -6 9 -11 0 -22z m-589 -528 c0 -3 -4 -8 -10 -11 -5
-3 -10 -1 -10 4 0 6 5 11 10 11 6 0 10 -2 10 -4z m-285 -255 c-3 -6 -16 -16
-28 -22 -20 -10 -20 -9 3 14 25 24 38 28 25 8z m3949 -519 c3 -5 -1 -9 -9 -9
-8 0 -12 4 -9 9 3 4 7 8 9 8 2 0 6 -4 9 -8z m-4941 -367 c-3 -9 -8 -14 -10
-11 -3 3 -2 9 2 15 9 16 15 13 8 -4z m-618 -564 c3 -5 1 -12 -5 -16 -5 -3 -10
1 -10 9 0 18 6 21 15 7z m-77 -86 c-3 -3 -9 2 -12 12 -6 14 -5 15 5 6 7 -7 10
-15 7 -18z m6796 -31 c3 -8 2 -12 -4 -9 -6 3 -10 10 -10 16 0 14 7 11 14 -7z
m1826 -1028 c0 -3 -4 -8 -10 -11 -5 -3 -10 -1 -10 4 0 6 5 11 10 11 6 0 10 -2
10 -4z"/>
<path d="M5344 9179 c-5 -9 -2 -10 9 -6 9 3 18 2 21 -4 2 -5 3 -4 2 3 -3 17
-23 21 -32 7z"/>
<path d="M5386 9153 c-6 -14 -5 -15 5 -6 7 7 10 15 7 18 -3 3 -9 -2 -12 -12z"/>
<path d="M5446 9116 c6 -15 4 -17 -6 -11 -9 6 -11 4 -5 -4 5 -9 10 -10 18 -2
8 8 7 14 -2 24 -10 10 -11 8 -5 -7z"/>
<path d="M5235 9090 c-3 -5 -1 -10 4 -10 6 0 11 5 11 10 0 6 -2 10 -4 10 -3 0
-8 -4 -11 -10z"/>
<path d="M5483 9068 c15 -5 24 -14 21 -20 -5 -7 -2 -8 6 -3 10 6 9 11 -5 22
-11 7 -26 13 -34 12 -9 0 -4 -5 12 -11z"/>
<path d="M5166 9020 c-20 -22 -36 -43 -36 -48 0 -4 7 2 16 13 8 11 20 20 27
20 7 0 12 6 12 13 0 7 7 17 15 22 8 5 12 12 9 15 -4 3 -23 -13 -43 -35z"/>
<path d="M5553 9017 c0 -8 6 -14 14 -14 9 0 10 4 2 14 -6 7 -12 13 -14 13 -1
0 -2 -6 -2 -13z"/>
<path d="M5105 8971 c-3 -5 -1 -12 5 -16 6 -4 7 -12 4 -18 -4 -7 -1 -6 7 2 11
10 11 15 1 18 -6 3 -10 9 -6 14 3 5 3 9 0 9 -3 0 -7 -4 -11 -9z"/>
<path d="M5017 8883 c-10 -9 -9 -23 1 -23 5 0 9 7 9 15 0 17 -1 18 -10 8z"/>
<path d="M5708 8879 c6 -9 8 -20 4 -24 -4 -5 -2 -5 5 -2 6 4 14 1 16 -5 3 -8
6 -8 6 -2 1 6 -9 19 -21 30 -14 12 -18 13 -10 3z"/>
<path d="M4970 8846 c0 -2 7 -7 16 -10 8 -3 12 -2 9 4 -6 10 -25 14 -25 6z"/>
<path d="M5866 8731 c-4 -5 -2 -12 3 -15 5 -4 12 -2 15 3 4 5 2 12 -3 15 -5 4
-12 2 -15 -3z"/>
<path d="M5956 8643 c-6 -14 -5 -15 5 -6 7 7 10 15 7 18 -3 3 -9 -2 -12 -12z"/>
<path d="M5970 8626 c0 -2 7 -7 16 -10 8 -3 12 -2 9 4 -6 10 -25 14 -25 6z"/>
<path d="M6037 8567 c-3 -7 3 -13 14 -13 13 0 15 3 7 13 -6 7 -12 13 -13 13
-2 0 -5 -6 -8 -13z"/>
<path d="M4606 8512 c-12 -16 -15 -27 -8 -34 7 -7 10 -4 9 8 -1 11 4 18 11 16
8 -1 11 2 7 8 -3 5 1 10 9 10 9 0 16 4 16 8 0 17 -26 8 -44 -16z"/>
<path d="M6175 8450 c-4 -6 -1 -9 7 -8 7 2 12 -3 11 -9 -2 -7 2 -13 7 -13 14
0 12 16 -4 29 -10 8 -16 9 -21 1z"/>
<path d="M6221 8404 c0 -11 3 -14 6 -6 3 7 2 16 -1 19 -3 4 -6 -2 -5 -13z"/>
<path d="M6260 8371 c0 -6 6 -11 14 -11 8 0 16 -5 18 -11 2 -7 10 -10 16 -8 7
2 0 12 -18 22 -16 10 -30 13 -30 8z"/>
<path d="M6343 8294 c0 -8 3 -12 5 -9 3 3 11 0 19 -7 11 -8 12 -7 7 5 -7 21
-31 29 -31 11z"/>
<path d="M4357 8285 c-4 -8 -3 -16 1 -19 4 -3 9 4 9 15 2 23 -3 25 -10 4z"/>
<path d="M4216 8165 c-3 -8 0 -17 6 -21 6 -4 8 -3 4 4 -3 5 -1 12 6 14 8 3 9
6 1 11 -6 4 -13 0 -17 -8z"/>
<path d="M4190 8136 c0 -2 7 -7 16 -10 8 -3 12 -2 9 4 -6 10 -25 14 -25 6z"/>
<path d="M6574 8088 c-4 -7 -4 -10 0 -6 11 9 46 -23 39 -35 -4 -6 -1 -7 6 -2
9 5 7 13 -10 31 -26 28 -26 28 -35 12z"/>
<path d="M4105 8071 c-6 -11 13 -26 22 -17 4 3 1 6 -6 6 -7 0 -9 5 -6 10 3 6
4 10 1 10 -3 0 -7 -4 -11 -9z"/>
<path d="M6666 8015 c4 -8 10 -15 16 -15 5 0 6 -5 2 -12 -5 -7 -3 -8 5 -4 9 6
8 13 -5 27 -21 23 -25 24 -18 4z"/>
<path d="M3995 7950 c3 -5 8 -10 11 -10 2 0 4 5 4 10 0 6 -5 10 -11 10 -5 0
-7 -4 -4 -10z"/>
<path d="M6746 7936 c3 -8 13 -17 22 -21 13 -5 13 -2 -3 15 -21 24 -26 25 -19
6z"/>
<path d="M3904 7875 c-4 -8 -10 -13 -14 -10 -5 3 -11 1 -14 -4 -4 -5 -2 -12 4
-16 5 -3 15 3 22 14 10 16 15 18 28 8 13 -11 13 -10 1 6 -16 21 -20 21 -27 2z"/>
<path d="M6839 7843 c-13 -16 -12 -17 3 -5 14 11 18 10 26 -5 6 -10 13 -15 16
-12 4 3 -2 13 -13 23 -17 15 -19 15 -32 -1z"/>
<path d="M3852 7828 c-7 -7 -12 -16 -12 -21 0 -5 7 -1 16 8 9 9 14 18 12 20
-2 3 -10 -1 -16 -7z"/>
<path d="M6910 7791 c0 -6 6 -11 13 -11 8 0 7 -4 -3 -10 -9 -6 -10 -10 -3 -10
19 0 24 17 8 30 -10 9 -15 9 -15 1z"/>
<path d="M3730 7725 c-13 -14 -19 -25 -13 -25 6 0 14 7 17 16 3 8 10 13 14 10
5 -3 9 1 9 9 0 19 1 19 -27 -10z"/>
<path d="M7015 7690 c-4 -6 -1 -9 7 -8 7 2 12 -3 10 -10 -1 -8 2 -11 8 -7 8 5
7 11 -1 21 -14 17 -16 17 -24 4z"/>
<path d="M3616 7608 c3 -5 10 -6 15 -3 13 9 11 12 -6 12 -8 0 -12 -4 -9 -9z"/>
<path d="M7206 7517 c3 -10 9 -15 12 -12 3 3 0 11 -7 18 -10 9 -11 8 -5 -6z"/>
<path d="M3484 7501 c-34 -21 -51 -41 -36 -41 6 0 13 7 16 16 3 8 9 13 13 11
5 -2 17 4 27 14 25 24 19 24 -20 0z"/>
<path d="M7293 7445 c0 -8 4 -12 9 -9 5 3 6 10 3 15 -9 13 -12 11 -12 -6z"/>
<path d="M3276 7322 c-3 -4 4 -9 15 -9 23 -2 25 3 4 10 -8 4 -16 3 -19 -1z"/>
<path d="M7436 7318 c5 -7 9 -16 9 -20 0 -3 4 -10 9 -15 5 -4 6 -3 3 4 -4 6
-3 13 3 15 6 2 1 9 -11 16 -17 11 -20 11 -13 0z"/>
<path d="M3103 7148 c-11 -19 -13 -39 -1 -32 5 3 7 9 4 12 -3 3 -1 11 5 19 6
7 9 13 6 13 -3 0 -9 -6 -14 -12z"/>
<path d="M3040 7100 c-8 -5 -10 -10 -5 -10 6 0 17 5 25 10 8 5 11 10 5 10 -5
0 -17 -5 -25 -10z"/>
<path d="M2976 7044 c-8 -20 -8 -24 2 -24 4 0 8 9 9 20 2 24 -3 26 -11 4z"/>
<path d="M2903 6982 c-26 -25 -27 -30 -14 -42 13 -12 14 -12 8 2 -7 20 18 46
27 26 3 -7 4 -4 3 7 -2 16 3 19 23 17 19 -2 22 0 10 8 -21 14 -24 13 -57 -18z"/>
<path d="M7790 6970 c0 -5 5 -10 11 -10 5 0 7 5 4 10 -3 6 -8 10 -11 10 -2 0
-4 -4 -4 -10z"/>
<path d="M2796 6883 c-4 -11 -1 -11 14 -3 24 13 25 17 5 17 -8 0 -16 -6 -19
-14z"/>
<path d="M7934 6858 c-4 -6 -3 -9 2 -6 12 8 35 -17 26 -28 -4 -4 -1 -4 6 0 11
6 10 12 -4 27 -20 22 -21 22 -30 7z"/>
<path d="M2742 6828 c-7 -7 -12 -19 -11 -27 0 -10 4 -7 10 7 5 14 13 20 20 16
8 -4 9 -3 5 4 -9 15 -9 15 -24 0z"/>
<path d="M8085 6729 c-4 -6 -5 -12 -2 -15 2 -3 7 2 10 11 7 17 1 20 -8 4z"/>
<path d="M2525 6640 c-11 -12 -13 -20 -6 -25 11 -6 12 -5 15 18 1 6 9 11 19 9
21 -3 23 4 3 11 -8 3 -22 -3 -31 -13z"/>
<path d="M8215 6610 c-4 -6 -1 -9 7 -8 7 2 12 -3 11 -9 -2 -7 2 -13 7 -13 14
0 12 16 -4 29 -10 8 -16 9 -21 1z"/>
<path d="M2437 6560 c-15 -14 -16 -20 -5 -26 7 -4 9 -3 5 1 -4 5 2 14 14 21
12 6 18 13 13 16 -5 3 -17 -3 -27 -12z"/>
<path d="M8309 6518 c-11 -8 -11 -9 3 -5 9 3 18 1 20 -5 2 -6 9 -9 16 -7 8 3
6 8 -6 16 -13 7 -23 8 -33 1z"/>
<path d="M2354 6478 c-16 -18 -22 -27 -13 -20 9 6 19 8 23 4 4 -4 6 0 4 8 -1
8 2 14 8 13 6 -1 11 5 11 13 0 18 1 19 -33 -18z"/>
<path d="M8368 6466 c12 -6 20 -15 17 -19 -3 -4 -2 -5 2 -2 3 3 12 -3 20 -13
9 -10 8 -5 -2 13 -10 19 -26 31 -38 32 -22 2 -22 2 1 -11z"/>
<path d="M2306 6442 c-3 -5 1 -9 9 -9 8 0 12 4 9 9 -3 4 -7 8 -9 8 -2 0 -6 -4
-9 -8z"/>
<path d="M2296 6403 c-6 -14 -5 -15 5 -6 7 7 10 15 7 18 -3 3 -9 -2 -12 -12z"/>
<path d="M8502 6359 c10 -5 15 -16 12 -24 -6 -15 7 -21 19 -8 9 8 -22 43 -37
43 -6 0 -3 -5 6 -11z"/>
<path d="M8562 6294 c-14 -16 -5 -18 17 -5 7 5 9 11 5 14 -5 3 -15 -1 -22 -9z"/>
<path d="M8580 6269 c0 -5 5 -7 10 -4 6 3 10 8 10 11 0 2 -4 4 -10 4 -5 0 -10
-5 -10 -11z"/>
<path d="M8620 6251 c0 -6 4 -13 10 -16 6 -3 7 1 4 9 -7 18 -14 21 -14 7z"/>
<path d="M8667 6201 c-3 -13 -1 -18 9 -14 7 2 10 11 7 19 -7 19 -10 18 -16 -5z"/>
<path d="M8727 6161 c6 -7 9 -20 6 -27 -3 -8 -3 -14 0 -14 14 0 14 30 -1 41
-14 11 -15 11 -5 0z"/>
<path d="M1922 6097 c-16 -17 -18 -26 -11 -37 9 -13 10 -13 7 0 -5 18 22 51
35 43 6 -3 7 -1 3 5 -9 16 -9 16 -34 -11z"/>
<path d="M1845 6023 c-11 -25 -15 -46 -7 -38 4 4 7 10 7 13 0 4 4 13 9 20 4 7
6 15 3 18 -2 3 -8 -3 -12 -13z"/>
<path d="M8880 6000 c-9 -6 -10 -10 -3 -10 6 0 15 5 18 10 8 12 4 12 -15 0z"/>
<path d="M8926 5976 c3 -8 13 -17 22 -21 13 -5 13 -2 -3 15 -21 24 -26 25 -19
6z"/>
<path d="M1710 5905 c-13 -14 -18 -25 -12 -25 7 0 12 4 12 10 0 5 8 7 18 4 14
-5 15 -4 2 5 -14 10 -7 16 13 12 5 -1 6 3 2 9 -8 13 -8 14 -35 -15z"/>
<path d="M8999 5918 c-7 -23 -4 -35 7 -35 8 0 14 4 14 9 0 4 -5 8 -11 8 -5 0
-7 5 -4 10 3 6 4 10 1 10 -3 0 -6 -1 -7 -2z"/>
<path d="M9065 5850 c5 -8 10 -21 11 -28 3 -18 14 -29 14 -14 0 7 5 12 11 12
5 0 7 -5 4 -10 -4 -6 -3 -10 2 -9 20 3 27 -2 13 -11 -9 -6 -10 -10 -3 -10 28
0 20 21 -19 52 -23 18 -38 26 -33 18z"/>
<path d="M1596 5792 c-3 -5 1 -9 9 -9 8 0 12 4 9 9 -3 4 -7 8 -9 8 -2 0 -6 -4
-9 -8z"/>
<path d="M2447 4894 c-1 -1 -37 -4 -79 -7 -363 -27 -617 -262 -616 -570 0
-204 91 -345 281 -436 104 -50 143 -63 355 -116 199 -51 284 -85 301 -122 15
-32 -1 -92 -31 -120 -35 -31 -114 -53 -203 -55 -157 -4 -274 25 -391 97 -90
56 -118 67 -178 66 -123 0 -205 -138 -161 -270 21 -65 90 -126 200 -181 80
-39 217 -83 288 -93 21 -3 40 -7 43 -10 2 -2 -1 -28 -7 -58 -37 -172 52 -349
217 -430 63 -31 76 -34 164 -34 86 0 101 3 160 31 85 41 154 109 194 193 28
60 31 75 31 161 0 82 -4 103 -27 153 -15 32 -36 69 -47 83 l-20 26 32 26 c123
102 186 227 193 379 6 132 -36 251 -115 327 -56 55 -95 86 -108 86 -6 0 -13 4
-15 8 -4 10 -151 73 -223 96 -27 8 -120 33 -205 54 -162 41 -252 78 -270 111
-17 32 -12 91 11 122 51 72 194 102 350 73 71 -13 132 -40 219 -95 72 -46 108
-60 157 -61 55 -1 106 26 137 71 33 48 44 85 41 141 -5 87 -39 134 -150 209
-92 61 -207 106 -322 126 -76 13 -200 24 -206 19z m412 -1779 c40 -46 65 -131
58 -201 -14 -145 -127 -253 -273 -260 -111 -5 -204 45 -263 141 -38 62 -51
167 -28 230 14 39 15 40 65 43 55 3 60 -1 37 -35 -42 -60 -25 -172 35 -232
138 -136 372 -23 346 166 -7 50 -27 87 -69 124 l-30 27 32 7 c17 3 33 11 36
16 10 16 22 10 54 -26z"/>
<path d="M3937 4875 c-56 -14 -107 -48 -135 -89 -11 -17 -50 -94 -85 -171 -36
-77 -86 -185 -112 -240 -26 -55 -70 -149 -97 -210 -28 -60 -72 -155 -98 -210
-26 -55 -101 -215 -166 -355 -111 -240 -118 -259 -118 -317 1 -135 130 -227
271 -194 92 22 111 49 238 339 l19 42 353 -2 354 -3 65 -145 c75 -169 110
-212 186 -230 65 -16 126 -6 182 31 61 41 89 88 92 158 2 50 -4 69 -55 181
-68 146 -103 221 -161 345 -78 166 -108 230 -138 295 -29 64 -70 150 -142 305
-70 149 -112 240 -140 301 -15 33 -40 74 -54 91 -59 70 -165 102 -259 78z m93
-658 c0 -4 9 -26 19 -50 72 -158 131 -293 131 -299 0 -4 -79 -8 -176 -8 -137
0 -175 3 -171 13 3 6 42 96 88 199 72 163 84 185 95 170 8 -9 14 -20 14 -25z"/>
<path d="M5144 4879 c-75 -10 -135 -54 -164 -121 l-23 -53 0 -727 c0 -809 -2
-780 67 -847 79 -77 226 -70 299 13 51 57 51 60 54 415 1 183 4 335 6 337 2 2
10 -8 18 -24 7 -15 34 -65 60 -112 25 -47 70 -130 99 -185 85 -161 115 -201
171 -229 89 -44 196 -23 255 51 32 40 43 59 181 321 53 100 98 181 100 178 3
-2 5 -154 6 -338 2 -325 3 -334 25 -375 12 -23 22 -44 22 -47 0 -13 -180 -154
-282 -222 -220 -147 -517 -266 -743 -299 -22 -3 -45 -8 -52 -10 -12 -4 -58
-10 -193 -24 -80 -8 -448 -6 -540 3 -30 3 -82 8 -115 11 -33 4 -71 8 -85 10
-14 2 -76 11 -138 20 -62 9 -121 18 -130 20 -9 1 -57 10 -107 19 -49 9 -130
26 -180 36 -49 11 -99 22 -110 24 -11 2 -69 16 -130 30 -60 15 -119 29 -130
31 -11 3 -88 22 -171 44 -84 21 -157 35 -164 31 -28 -18 -4 -45 65 -73 56 -23
644 -222 696 -236 8 -2 84 -23 169 -48 306 -87 589 -142 875 -168 130 -13 412
-6 475 10 8 3 39 7 69 10 81 9 277 68 375 114 92 42 232 125 278 163 15 13 42
34 60 47 36 27 226 215 273 271 17 19 47 57 68 83 26 31 46 47 61 47 60 0 139
61 166 128 7 18 13 67 14 110 2 50 8 86 18 102 30 48 84 145 91 162 6 17 -15
48 -33 48 -11 0 -60 -51 -60 -62 0 -5 -3 -8 -8 -8 -4 0 -7 255 -7 566 0 622 0
627 -60 688 -44 46 -94 66 -162 66 -110 0 -157 -43 -263 -246 -40 -76 -100
-190 -133 -253 -179 -341 -219 -418 -230 -443 -6 -16 -14 -28 -17 -28 -4 0
-23 33 -43 73 -20 39 -61 117 -90 172 -62 117 -200 379 -272 517 -28 53 -63
112 -79 131 -52 62 -118 87 -202 76z"/>
<path d="M7657 4794 c-1 -1 -29 -4 -62 -8 -271 -29 -505 -183 -617 -408 -64
-127 -82 -212 -83 -380 l0 -146 -37 -11 c-20 -6 -47 -24 -58 -39 -25 -30 -23
-69 7 -175 25 -89 63 -107 175 -83 20 5 29 -4 67 -63 184 -283 486 -407 836
-344 96 18 196 60 194 82 -1 9 1 28 5 44 8 25 12 27 60 28 51 1 95 3 276 13
278 16 427 46 493 100 24 19 46 82 40 117 -3 24 1 31 29 45 101 50 114 134 30
178 -36 19 -136 15 -177 -6 -38 -20 -81 -63 -88 -87 -8 -33 22 -77 65 -97 45
-20 54 -41 32 -72 -11 -16 -82 -44 -119 -47 -10 -1 -107 -13 -160 -20 -42 -6
-284 -18 -384 -19 l-84 -1 -11 33 c-15 44 -60 98 -97 118 -41 21 -109 20 -150
-2 -26 -14 -57 -19 -134 -19 -90 0 -105 3 -152 28 -151 79 -255 280 -246 474
11 248 200 394 465 358 31 -4 68 -5 82 -1 61 15 132 111 138 185 1 20 8 31 18
32 8 0 24 2 35 4 11 2 54 7 95 11 41 3 77 7 80 9 3 2 48 6 100 10 52 4 111 9
130 11 49 5 231 5 255 0 11 -3 26 -5 33 -5 22 -2 52 -41 52 -69 0 -23 -8 -32
-46 -50 -105 -51 -87 -157 33 -187 172 -44 311 113 166 186 -27 13 -49 24 -50
24 -1 0 -4 19 -7 42 -17 144 -124 181 -461 158 -49 -3 -106 -8 -125 -10 -19
-3 -60 -7 -90 -10 -81 -8 -150 -15 -195 -21 -36 -4 -43 -2 -63 25 -39 53 -75
66 -190 66 -57 0 -104 -1 -105 -1z"/>
<path d="M9366 5575 c4 -8 10 -15 16 -15 5 0 6 -5 2 -12 -5 -7 -3 -8 5 -4 9 6
8 13 -5 27 -21 23 -25 24 -18 4z"/>
<path d="M9420 5530 c0 -5 9 -14 20 -20 11 -6 20 -9 20 -8 0 2 -9 11 -20 21
-11 9 -20 13 -20 7z"/>
<path d="M1250 5485 c-11 -13 -10 -14 4 -9 9 3 16 10 16 15 0 13 -6 11 -20 -6z"/>
<path d="M1193 5425 c0 -8 4 -12 9 -9 5 3 6 10 3 15 -9 13 -12 11 -12 -6z"/>
<path d="M9515 5420 c3 -5 8 -10 11 -10 2 0 4 5 4 10 0 6 -5 10 -11 10 -5 0
-7 -4 -4 -10z"/>
<path d="M1157 5413 c-3 -5 4 -15 16 -23 21 -12 21 -12 7 6 -8 10 -15 20 -16
22 -1 2 -4 -1 -7 -5z"/>
<path d="M1072 5325 c-11 -13 -23 -21 -27 -17 -5 4 -5 1 0 -7 7 -11 11 -11 22
5 8 10 18 19 23 19 14 0 22 13 11 19 -5 3 -18 -5 -29 -19z"/>
<path d="M9633 5335 c0 -7 5 -13 11 -12 6 1 10 -6 10 -15 -1 -9 4 -14 11 -12
7 3 22 -7 34 -22 11 -15 21 -23 22 -18 0 5 5 -2 10 -15 5 -13 12 -21 15 -18 9
9 -7 29 -62 80 -29 26 -51 40 -51 32z"/>
<path d="M1005 5270 c-3 -5 -1 -10 4 -10 6 0 11 5 11 10 0 6 -2 10 -4 10 -3 0
-8 -4 -11 -10z"/>
<path d="M1035 5270 c3 -5 8 -10 11 -10 2 0 4 5 4 10 0 6 -5 10 -11 10 -5 0
-7 -4 -4 -10z"/>
<path d="M973 5244 c7 -13 -16 -37 -26 -29 -4 3 -5 2 -2 -2 8 -10 36 -13 30
-3 -3 5 1 10 7 13 10 3 10 8 -1 18 -8 8 -11 9 -8 3z"/>
<path d="M9755 5211 c-3 -5 -2 -12 3 -15 5 -3 9 1 9 9 0 17 -3 19 -12 6z"/>
<path d="M851 5130 c-24 -21 -39 -40 -33 -44 6 -3 20 8 33 25 17 24 24 28 31
17 6 -9 8 -8 6 7 -2 14 2 19 15 17 20 -3 23 4 4 11 -7 2 -32 -12 -56 -33z"/>
<path d="M9904 5080 c0 -13 4 -16 10 -10 7 7 7 13 0 20 -6 6 -10 3 -10 -10z"/>
<path d="M9920 5056 c0 -2 7 -7 16 -10 8 -3 12 -2 9 4 -6 10 -25 14 -25 6z"/>
<path d="M9964 5042 c3 -5 0 -13 -6 -15 -9 -4 -10 -6 -1 -6 17 -1 25 16 12 25
-7 4 -9 3 -5 -4z"/>
<path d="M716 4997 c3 -10 9 -15 12 -12 3 3 0 11 -7 18 -10 9 -11 8 -5 -6z"/>
<path d="M10090 4950 c0 -5 5 -10 11 -10 5 0 7 5 4 10 -3 6 -8 10 -11 10 -2 0
-4 -4 -4 -10z"/>
<path d="M285 4939 c-4 -6 -4 -13 -1 -16 3 -4 6 -1 6 5 0 7 5 12 11 12 5 0 8
-4 5 -8 -3 -5 1 -9 9 -9 20 0 19 13 -1 21 -21 8 -22 8 -29 -5z"/>
<path d="M565 4931 c-3 -6 -14 -8 -25 -6 -24 5 -36 -13 -21 -28 9 -9 10 -7 5
8 -7 17 -6 18 8 7 12 -9 18 -10 23 -2 5 8 12 7 23 -2 15 -11 15 -11 5 3 -7 9
-10 19 -6 22 3 4 4 7 0 7 -3 0 -8 -4 -12 -9z"/>
<path d="M10285 4912 c-10 -7 -18 -32 -10 -32 2 0 9 9 15 20 12 22 11 24 -5
12z"/>
<path d="M10314 4906 c-10 -8 -16 -18 -11 -22 4 -4 7 -2 7 4 0 7 7 12 15 12 8
0 15 5 15 10 0 13 -3 13 -26 -4z"/>
<path d="M10238 4903 c6 -2 9 -10 6 -15 -4 -7 -2 -8 5 -4 13 9 5 26 -12 25 -9
0 -8 -2 1 -6z"/>
<path d="M10345 4890 c-3 -6 1 -7 9 -4 18 7 21 14 7 14 -6 0 -13 -4 -16 -10z"/>
<path d="M1553 1025 c-40 -17 -67 -66 -58 -106 8 -35 51 -65 105 -75 46 -9 70
-22 70 -38 0 -29 -67 -35 -124 -11 -43 18 -56 13 -56 -21 0 -32 53 -56 125
-56 91 -1 144 46 131 116 -8 40 -32 57 -109 77 -50 12 -70 28 -59 46 13 21 65
24 106 6 37 -16 39 -16 52 1 40 56 -93 100 -183 61z"/>
<path d="M1811 1031 c-23 -14 -20 -221 3 -255 27 -42 61 -58 120 -58 109 0
145 51 144 202 -1 92 -9 120 -36 120 -40 -1 -46 -15 -47 -117 -1 -114 -13
-143 -55 -143 -35 0 -60 23 -61 58 -1 15 -2 61 -3 102 0 41 -5 81 -9 88 -10
14 -36 16 -56 3z"/>
<path d="M2142 1024 c-14 -27 -15 -273 -1 -290 16 -19 58 -17 66 2 3 9 6 36 7
60 0 39 3 44 23 44 15 0 34 -17 63 -57 51 -71 62 -78 91 -54 l22 18 -22 37
c-12 20 -31 42 -41 49 -18 13 -18 14 10 30 32 19 45 60 35 107 -11 48 -45 64
-150 68 -83 4 -94 2 -103 -14z m174 -69 c21 -29 -8 -55 -61 -55 -41 0 -41 0
-42 38 l-1 37 45 0 c32 -1 49 -7 59 -20z"/>
<path d="M2558 1027 c-7 -8 -42 -73 -77 -145 -53 -109 -62 -134 -51 -147 22
-26 55 -18 72 18 l16 34 72 -1 c72 -1 73 -1 88 -34 13 -26 21 -32 42 -30 39 5
36 35 -19 152 -75 160 -104 191 -143 153z m52 -128 c12 -23 20 -42 18 -44 -9
-9 -73 -9 -73 0 0 14 26 85 31 85 2 0 13 -18 24 -41z"/>
<path d="M2801 1026 c-8 -9 -11 -60 -9 -157 l3 -144 35 0 35 0 3 144 c3 148
-2 171 -38 171 -10 0 -23 -6 -29 -14z"/>
<path d="M2910 1025 c-16 -20 -7 -38 49 -105 42 -49 45 -56 46 -114 2 -72 8
-86 39 -86 32 0 48 22 46 62 -5 79 0 92 50 148 28 30 50 60 50 67 0 25 -13 43
-31 43 -17 0 -30 -11 -87 -77 -11 -13 -23 -23 -28 -23 -5 1 -26 23 -47 50 -40
51 -65 61 -87 35z"/>
<path d="M3286 1018 c-8 -13 -41 -76 -72 -141 -45 -93 -56 -122 -47 -135 18
-30 49 -26 70 9 18 32 21 33 87 35 68 1 68 1 88 -33 22 -37 52 -42 71 -12 8
13 -5 48 -59 155 -61 123 -72 139 -96 142 -19 2 -31 -3 -42 -20z m59 -115 c8
-21 14 -42 13 -47 -3 -7 -78 -16 -78 -9 0 6 44 93 47 93 2 0 10 -17 18 -37z"/>
<path d="M3772 1033 c-15 -6 -142 -264 -142 -288 0 -18 48 -31 62 -17 6 6 16
21 22 34 10 21 19 23 83 24 l71 1 16 -34 c12 -26 22 -34 38 -31 50 7 46 30
-27 175 -70 138 -83 153 -123 136z m41 -120 c30 -58 30 -69 -1 -67 -15 1 -34
3 -43 3 -15 1 -14 6 4 46 12 25 22 45 24 45 1 0 9 -12 16 -27z"/>
<path d="M3940 1030 c-38 -24 -11 -60 45 -60 l42 0 -1 -105 c-2 -121 4 -145
37 -145 41 0 47 17 47 136 l0 113 48 3 c41 3 47 6 50 27 2 13 -2 27 -10 32
-18 11 -240 10 -258 -1z"/>
<path d="M4313 1032 c-6 -4 -41 -67 -77 -141 -51 -105 -63 -138 -55 -152 18
-34 67 -15 81 31 4 11 22 15 77 15 73 1 73 1 89 -32 18 -38 55 -45 71 -15 8
15 -5 49 -60 160 -58 119 -73 142 -92 142 -12 0 -27 -4 -34 -8z m53 -137 c19
-40 20 -45 5 -46 -20 -1 -65 2 -68 5 -4 4 31 86 37 86 3 0 15 -21 26 -45z"/>
<path d="M4548 1026 c-21 -21 -17 -216 6 -250 27 -42 62 -58 120 -58 62 0 108
22 127 61 16 32 21 231 7 249 -12 14 -37 15 -57 3 -11 -7 -15 -33 -16 -103 -1
-51 -5 -103 -9 -115 -14 -42 -88 -42 -102 0 -4 12 -8 63 -8 112 -1 50 -5 96
-9 103 -11 16 -42 15 -59 -2z"/>
<path d="M4881 1022 c-13 -24 -12 -274 1 -289 6 -7 21 -13 35 -13 28 0 40 25
37 81 -1 31 2 39 15 39 22 0 41 -16 76 -65 15 -22 34 -45 42 -51 17 -15 50 -7
57 13 8 19 -18 67 -49 91 -25 20 -25 21 -5 27 55 18 64 129 12 163 -39 25
-208 29 -221 4z m167 -56 c7 -4 12 -18 12 -30 0 -26 -22 -36 -76 -36 -29 0
-31 2 -29 38 1 20 3 37 4 38 6 4 80 -4 89 -10z"/>
<path d="M5332 1028 c-13 -13 -18 -262 -6 -292 8 -21 51 -20 62 2 4 9 7 43 6
75 -1 31 -1 57 1 57 2 0 16 -20 30 -44 49 -83 65 -83 110 0 l30 56 5 -79 5
-78 30 0 30 0 3 146 c2 122 0 148 -13 159 -28 23 -57 -3 -98 -84 -21 -42 -42
-76 -46 -76 -4 0 -20 24 -34 53 -59 116 -83 137 -115 105z"/>
<path d="M5711 1026 c-8 -9 -11 -58 -9 -157 l3 -144 110 0 c105 0 110 1 113
22 4 29 -20 39 -90 37 l-58 -1 0 33 0 34 65 0 c53 0 66 3 74 19 16 30 -11 44
-79 43 l-60 -1 0 33 0 32 63 -2 c76 -2 87 2 87 31 0 30 -9 32 -116 34 -68 1
-94 -2 -103 -13z"/>
<path d="M5988 1034 c-20 -6 -19 -1 -20 -173 0 -70 4 -127 10 -133 18 -18 182
-5 218 16 45 27 67 70 67 131 1 106 -57 157 -182 161 -42 2 -84 1 -93 -2z
m167 -89 c19 -18 25 -35 25 -68 0 -65 -43 -97 -117 -88 -9 1 -13 26 -13 91 l0
90 40 0 c30 0 47 -7 65 -25z"/>
<path d="M6324 1018 c-11 -32 -12 -259 -2 -280 5 -10 20 -18 33 -18 13 0 28 8
33 18 13 24 12 274 0 290 -17 21 -56 14 -64 -10z"/>
<path d="M6522 1020 c-54 -33 -74 -75 -70 -150 4 -74 24 -110 75 -135 88 -43
235 7 181 61 -12 13 -19 12 -51 -1 -20 -8 -45 -15 -56 -15 -33 0 -62 32 -68
77 -13 97 51 146 134 102 30 -16 55 -4 51 23 -7 52 -133 76 -196 38z"/>
<path d="M6860 1018 c-11 -12 -20 -26 -20 -30 0 -5 -25 -58 -55 -119 -43 -88
-52 -115 -44 -130 15 -29 47 -23 69 14 19 31 22 32 91 32 l72 1 14 -33 c14
-36 37 -42 67 -20 18 13 15 22 -49 153 -37 76 -72 142 -79 146 -20 14 -45 8
-66 -14z m60 -118 c11 -21 20 -43 20 -47 0 -5 -18 -7 -41 -5 -33 3 -39 7 -34
21 4 9 12 28 17 44 5 15 12 27 14 27 2 0 13 -18 24 -40z"/>
<path d="M7112 1028 c-13 -13 -18 -262 -6 -292 5 -13 24 -16 105 -16 87 0 99
2 109 19 13 26 -13 53 -49 51 -14 -1 -40 -2 -57 -1 l-31 1 0 109 c0 114 -8
141 -42 141 -9 0 -22 -5 -29 -12z"/>
<path d="M7553 1020 c-60 -36 -85 -100 -71 -180 10 -55 71 -119 115 -121 108
-6 166 24 147 75 -4 11 -13 15 -23 11 -64 -25 -99 -28 -125 -12 -44 29 -47
127 -4 166 21 20 82 21 102 1 15 -15 43 -12 50 6 10 27 7 34 -26 54 -44 26
-122 27 -165 0z"/>
<path d="M7802 1028 c-17 -17 -16 -280 0 -296 8 -8 47 -12 110 -12 86 0 99 2
108 19 17 33 -8 47 -84 45 l-66 -1 0 33 0 34 63 0 c67 0 88 10 80 41 -6 20
-19 23 -95 20 -47 -1 -48 0 -48 29 0 17 6 30 13 31 6 1 35 2 62 4 28 1 55 3
61 4 19 2 24 29 8 45 -18 19 -194 22 -212 4z"/>
<path d="M8071 1026 c-8 -9 -11 -60 -9 -157 l3 -144 27 -3 c35 -4 45 17 44 96
-1 35 1 65 5 67 3 2 36 -34 73 -80 50 -64 73 -85 91 -85 13 0 26 4 30 10 8 13
9 261 1 288 -9 27 -51 30 -64 5 -5 -10 -8 -50 -8 -90 1 -39 -2 -69 -6 -67 -4
3 -37 43 -74 89 -65 84 -89 100 -113 71z"/>
<path d="M8388 1033 c-23 -6 -24 -49 -2 -57 9 -3 31 -6 50 -6 l34 0 0 -113 c0
-120 6 -137 47 -137 33 0 39 23 38 143 l0 102 44 5 c50 6 73 29 53 53 -10 12
-39 15 -130 15 -64 0 -125 -2 -134 -5z"/>
<path d="M8699 1029 c-10 -6 -14 -41 -15 -141 -1 -73 3 -141 8 -150 7 -15 23
-18 108 -18 98 0 111 4 116 37 3 20 -15 26 -85 27 l-66 1 0 30 c0 30 1 30 64
35 46 4 67 10 75 22 16 26 -4 39 -60 40 -70 1 -84 6 -81 29 5 29 18 35 82 33
46 -1 58 2 66 18 19 36 -4 46 -105 46 -51 0 -100 -4 -107 -9z"/>
<path d="M8962 1022 c-13 -25 -13 -274 0 -289 15 -19 56 -16 65 5 5 9 8 36 8
60 -1 33 2 42 15 42 23 0 42 -18 78 -71 36 -53 63 -65 88 -38 15 17 15 20 -6
54 -12 19 -31 41 -42 49 -20 14 -20 14 2 21 31 10 54 65 46 109 -10 55 -41 70
-152 73 -80 2 -95 0 -102 -15z m167 -56 c6 -4 11 -18 11 -30 0 -26 -22 -36
-77 -36 -30 0 -32 2 -31 39 l0 39 43 -3 c23 -1 47 -5 54 -9z"/>
</g>
</svg>
